<?xml version="1.0" encoding="utf-8"?>
<!-- Generator: Adobe Illustrator 16.0.0, SVG Export Plug-In . SVG Version: 6.00 Build 0)  -->
<!DOCTYPE svg PUBLIC "-//W3C//DTD SVG 1.1//EN" "http://www.w3.org/Graphics/SVG/1.1/DTD/svg11.dtd">
<svg version="1.1" id="Layer_1" xmlns="http://www.w3.org/2000/svg" xmlns:xlink="http://www.w3.org/1999/xlink" x="0px" y="0px"
	 width="473.667px" height="323.443px" viewBox="0 0 473.667 323.443" enable-background="new 0 0 473.667 323.443"
	 xml:space="preserve">
<g id="Camping_House">
	<g id="Terrace">
		<g id="Stairs_1_">
			<g>
				<rect x="235.25" y="316.219" fill="none" stroke="#1C231F" stroke-miterlimit="10" width="50" height="6.725"/>
			</g>
			<rect x="235.25" y="305.5" fill="none" stroke="#1C231F" stroke-miterlimit="10" width="50" height="10.719"/>
		</g>
		<polyline fill="none" stroke="#1C231F" stroke-width="2" stroke-miterlimit="10" points="235.25,305.5 2.5,305.5 2.5,220.5 		"/>
		<polyline fill="none" stroke="#1C231F" stroke-width="2" stroke-miterlimit="10" points="471.167,220.5 471.167,305.5 
			285.25,305.5 		"/>
		<g id="Outside_table">
			<rect x="34.416" y="247.563" fill="none" stroke="#1C231F" stroke-miterlimit="10" width="84.169" height="30.738"/>
			<g>
				<ellipse fill="none" stroke="#1C231F" stroke-miterlimit="10" cx="51.262" cy="235.078" rx="7.481" ry="7.17"/>
				<ellipse fill="none" stroke="#1C231F" stroke-miterlimit="10" cx="101.74" cy="235.078" rx="7.481" ry="7.17"/>
				<ellipse fill="none" stroke="#1C231F" stroke-miterlimit="10" cx="76.501" cy="235.078" rx="7.481" ry="7.17"/>
			</g>
			<g>
				<ellipse fill="none" stroke="#1C231F" stroke-miterlimit="10" cx="51.262" cy="291.25" rx="7.481" ry="7.17"/>
				<ellipse fill="none" stroke="#1C231F" stroke-miterlimit="10" cx="101.74" cy="291.25" rx="7.48" ry="7.17"/>
				<ellipse fill="none" stroke="#1C231F" stroke-miterlimit="10" cx="76.501" cy="291.25" rx="7.481" ry="7.17"/>
			</g>
		</g>
		<g>
			<g>
				<g>
					<rect x="374.542" y="249.424" fill="none" stroke="#1C231F" stroke-miterlimit="10" width="45.439" height="22.057"/>
					<rect x="371.895" y="246.863" fill="none" stroke="#1C231F" stroke-miterlimit="10" width="50.437" height="27.178"/>
					<g>
						<line fill="none" stroke="#1C231F" stroke-miterlimit="10" x1="374.617" y1="252.316" x2="420.055" y2="252.316"/>
						<line fill="none" stroke="#1C231F" stroke-miterlimit="10" x1="374.467" y1="255.027" x2="419.907" y2="255.027"/>
						<line fill="none" stroke="#1C231F" stroke-miterlimit="10" x1="374.467" y1="257.74" x2="419.907" y2="257.74"/>
						<line fill="none" stroke="#1C231F" stroke-miterlimit="10" x1="374.467" y1="260.451" x2="419.907" y2="260.451"/>
						<line fill="none" stroke="#1C231F" stroke-miterlimit="10" x1="374.467" y1="263.164" x2="419.907" y2="263.164"/>
						<line fill="none" stroke="#1C231F" stroke-miterlimit="10" x1="374.467" y1="265.875" x2="419.907" y2="265.875"/>
						<line fill="none" stroke="#1C231F" stroke-miterlimit="10" x1="374.467" y1="268.588" x2="419.907" y2="268.588"/>
					</g>
				</g>
				<circle fill="none" stroke="#1C231F" stroke-miterlimit="10" cx="388.158" cy="260.451" r="4.88"/>
				<circle fill="none" stroke="#1C231F" stroke-miterlimit="10" cx="406.067" cy="260.451" r="4.88"/>
			</g>
			<g>
				<g>
					<rect x="362.685" y="249.422" fill="none" width="2.729" height="22.059"/>
					<rect x="358.466" y="249.422" fill="none" width="2.729" height="22.059"/>
					<line fill="none" stroke="#1C231F" stroke-miterlimit="10" x1="369.155" y1="249.422" x2="366.975" y2="249.422"/>
					<line fill="none" stroke="#1C231F" stroke-miterlimit="10" x1="358.466" y1="249.422" x2="361.196" y2="249.422"/>
					<line fill="none" stroke="#1C231F" stroke-miterlimit="10" x1="365.415" y1="249.422" x2="362.685" y2="249.422"/>
					<line fill="none" stroke="#1C231F" stroke-miterlimit="10" x1="361.196" y1="271.48" x2="358.466" y2="271.48"/>
					<line fill="none" stroke="#1C231F" stroke-miterlimit="10" x1="366.975" y1="271.48" x2="369.155" y2="271.48"/>
					<line fill="none" stroke="#1C231F" stroke-miterlimit="10" x1="362.685" y1="271.48" x2="365.415" y2="271.48"/>
					<polygon fill="none" stroke="#1C231F" stroke-miterlimit="10" points="358.466,245.15 356.977,245.15 356.977,275.756 
						358.466,275.756 358.466,271.48 358.466,249.422 					"/>
					<polygon fill="none" stroke="#1C231F" stroke-miterlimit="10" points="362.685,245.148 361.196,245.148 361.196,249.422 
						361.196,271.48 361.196,275.754 362.685,275.754 362.685,271.48 362.685,249.422 					"/>
					<polygon fill="none" stroke="#1C231F" stroke-miterlimit="10" points="366.903,245.148 365.415,245.148 365.415,249.422 
						365.415,271.48 365.415,275.754 366.903,275.754 366.903,271.48 366.903,249.422 					"/>
				</g>
				<path fill="none" stroke="#1C231F" stroke-miterlimit="10" d="M371.895,274.559c0,0.66-0.536,1.197-1.196,1.197l0,0
					c-0.66,0-1.196-0.537-1.196-1.197v-28.213c0-0.66,0.536-1.197,1.196-1.197l0,0c0.66,0,1.196,0.537,1.196,1.197V274.559z"/>
			</g>
		</g>
	</g>
	<polyline id="House" fill="none" stroke="#1C231F" stroke-width="5" stroke-miterlimit="10" points="235.583,219.166 2.5,219.166 
		2.5,2.5 471.167,2.5 471.167,219.166 285.25,219.166 	"/>
	<g id="Stairs">
		<g>
			<rect x="154.519" y="119.354" fill="none" stroke="#1C231F" stroke-miterlimit="10" width="20.667" height="44.087"/>
			<rect x="154.519" y="123.682" fill="#1C231F" width="20.667" height="0.912"/>
			<rect x="154.519" y="128.011" fill="#1C231F" width="20.667" height="0.912"/>
			<rect x="154.519" y="132.339" fill="#1C231F" width="20.667" height="0.912"/>
			<rect x="154.519" y="136.667" fill="#1C231F" width="20.667" height="0.912"/>
			<rect x="154.519" y="140.996" fill="#1C231F" width="20.667" height="0.912"/>
			<rect x="154.519" y="145.324" fill="#1C231F" width="20.667" height="0.912"/>
			<rect x="154.519" y="149.652" fill="#1C231F" width="20.667" height="0.912"/>
			<rect x="154.519" y="153.98" fill="#1C231F" width="20.667" height="0.912"/>
			<rect x="154.519" y="158.309" fill="#1C231F" width="20.667" height="0.912"/>
		</g>
		<rect x="150.501" y="101.681" fill="none" stroke="#1C231F" stroke-miterlimit="10" width="24.684" height="17.673"/>
	</g>
	<g>
		<path fill="none" stroke="#1C231F" stroke-miterlimit="10" d="M193.697,15.243l-9.414,9.414c-0.958-0.958-2.237-1.229-2.86-0.606
			l-4.878,4.877c-0.622,0.622-0.35,1.901,0.607,2.861l-9.553,9.552c-2.99,2.99-3.641,7.187-1.452,9.377l36.925-36.926
			C200.884,11.602,196.687,12.253,193.697,15.243z"/>
		<path fill="none" stroke="#1C231F" stroke-miterlimit="10" d="M173.198,35.734c-1.578-2.403-1.584-5.341,0.161-7.085l7.428-7.429
			c1.747-1.746,4.687-1.738,7.092-0.157"/>
		<path fill="none" stroke="#1C231F" stroke-miterlimit="10" d="M191.17,25.692c0.402,1.769,0.031,3.538-1.17,4.739l-7.43,7.429
			c-1.202,1.202-2.968,1.573-4.736,1.171"/>
	</g>
	<g id="Bathroom_00000183218867734788398660000009098121721341303178_">
		<g id="Toilet">
			<path fill="none" stroke="#1C231F" stroke-miterlimit="10" d="M24.931,11.04v25.659c0,0.993-0.805,1.798-1.798,1.798l0,0
				c-7.489,0-13.56-6.071-13.56-13.56v-2.135c0-7.489,6.071-13.56,13.56-13.56l0,0C24.125,9.242,24.931,10.047,24.931,11.04z"/>
			<ellipse fill="none" stroke="#1C231F" stroke-miterlimit="10" cx="19.164" cy="23.869" rx="1.912" ry="1.837"/>
			<path fill="none" stroke="#1C231F" stroke-miterlimit="10" d="M55.363,23.869L55.363,23.869c0,6.748-5.47,12.218-12.218,12.218
				H24.931V11.651h18.214C49.893,11.651,55.363,17.121,55.363,23.869z"/>
			<path fill="none" stroke="#1C231F" stroke-miterlimit="10" d="M50.833,23.869L50.833,23.869c0,4.273-3.464,7.738-7.738,7.738
				h-6.041c-4.273,0-7.738-3.464-7.738-7.737v0c0-4.273,3.464-7.737,7.738-7.737h6.041C47.369,16.131,50.833,19.595,50.833,23.869z"
				/>
			<ellipse fill="none" stroke="#1C231F" stroke-miterlimit="10" cx="38.763" cy="23.814" rx="5.539" ry="3.991"/>
		</g>
		<rect x="117.499" y="4.242" fill="none" stroke="#1C231F" stroke-miterlimit="10" width="33.002" height="39.253"/>
		<g id="Sink_00000000921584326347612870000016084603770176373425_">
			<g>
				<path fill="none" stroke="#1C231F" stroke-miterlimit="10" d="M129.685,37.353c-2.75,0-5-2.25-5-5V15.939c0-2.75,2.25-5,5-5
					h8.63c2.75,0,5,2.25,5,5v16.413c0,2.75-2.25,5-5,5H129.685z"/>
			</g>
			<rect x="137.655" y="23.063" fill="#1C231F" width="6.956" height="2.167"/>
			<circle fill="#1C231F" cx="134" cy="24.146" r="1.429"/>
			<rect x="142.136" y="20.491" fill="#1C231F" width="1.18" height="2.122"/>
			<rect x="142.136" y="25.575" fill="#1C231F" width="1.18" height="2.123"/>
			<g>
				<path fill="none" stroke="#1C231F" stroke-miterlimit="10" d="M127.445,39.961c-2.75,0-5-2.25-5-5v-21.63c0-2.75,2.25-5,5-5
					h13.11c2.75,0,5,2.25,5,5v21.63c0,2.75-2.25,5-5,5H127.445z"/>
			</g>
		</g>
		
			<polyline id="Walls_00000178903537820300715760000010122841629838107557_" fill="none" stroke="#1C231F" stroke-width="3" stroke-miterlimit="10" points="
			150.501,63.194 150.501,2.5 2.5,2.5 2.5,102.5 150.501,102.5 150.501,89.257 		"/>
		<g>
			<path fill-rule="evenodd" clip-rule="evenodd" fill="#1C231F" d="M23.476,61.347c0.483,0.039,0.859,0.442,0.859,0.936v2.186
				c0,0.494-0.376,0.897-0.859,0.936V61.347z M32.58,62.554c1.998,0,3.632,1.634,3.632,3.632v3.73
				c-0.257-0.097-0.538-0.146-0.816-0.141c-0.287-0.008-0.562,0.042-0.827,0.141v-3.73c0-1.118-0.872-1.99-1.99-1.99h-7.972v-1.642
				H32.58z M35.385,70.102c1.139,0,2.056,0.917,2.056,2.055v2.534c1.873,0.567,3.413,1.887,4.274,3.611h-12.66
				c0.859-1.721,2.406-3.042,4.274-3.611v-2.534C33.33,71.019,34.246,70.102,35.385,70.102L35.385,70.102z M41.638,78.715
				c0.435,0,0.783,0.349,0.783,0.783s-0.348,0.794-0.783,0.794H29.131c-0.435,0-0.783-0.359-0.783-0.794s0.349-0.783,0.783-0.783
				H41.638z M41.367,81.521c0.189,0.539,0.846,1.02,0.815,1.566c-0.001,0.454-0.363,0.837-0.815,0.837
				c-0.453,0-0.814-0.383-0.816-0.837C40.521,82.541,41.177,82.06,41.367,81.521z M37.386,81.521
				c0.189,0.539,0.846,1.02,0.815,1.566c-0.001,0.454-0.363,0.837-0.815,0.837c-0.453,0-0.825-0.383-0.827-0.837
				C36.529,82.541,37.197,82.06,37.386,81.521z M33.395,81.521c0.189,0.539,0.846,1.02,0.815,1.566
				c-0.001,0.454-0.362,0.837-0.815,0.837s-0.814-0.383-0.816-0.837C32.548,82.541,33.206,82.06,33.395,81.521z M29.403,81.521
				c0.189,0.539,0.857,1.02,0.827,1.566c-0.001,0.454-0.374,0.837-0.827,0.837c-0.453,0-0.814-0.383-0.815-0.837
				C28.557,82.541,29.214,82.06,29.403,81.521z M41.366,85.894c0.189,0.539,0.846,1.019,0.816,1.566
				c-0.002,0.455-0.363,0.837-0.816,0.837s-0.814-0.383-0.815-0.837C40.52,86.913,41.177,86.432,41.366,85.894z M37.386,85.894
				c0.189,0.539,0.846,1.019,0.815,1.566c-0.001,0.455-0.362,0.837-0.815,0.837s-0.825-0.383-0.827-0.837
				C36.528,86.913,37.197,86.432,37.386,85.894z M33.394,85.894c0.189,0.539,0.846,1.019,0.816,1.566
				c-0.002,0.455-0.363,0.837-0.816,0.837c-0.453,0-0.814-0.383-0.815-0.837C32.548,86.913,33.205,86.432,33.394,85.894z
				 M29.403,85.894c0.189,0.539,0.857,1.019,0.827,1.566c-0.002,0.455-0.374,0.837-0.827,0.837c-0.453,0-0.814-0.383-0.816-0.837
				C28.556,86.913,29.213,86.432,29.403,85.894z M41.366,90.266c0.189,0.539,0.847,1.019,0.816,1.566
				c-0.001,0.455-0.362,0.837-0.815,0.837c-0.453,0-0.814-0.383-0.815-0.838C40.52,91.285,41.177,90.804,41.366,90.266
				L41.366,90.266z M37.385,90.266c0.189,0.539,0.846,1.019,0.816,1.566c-0.001,0.455-0.362,0.837-0.815,0.837
				c-0.453,0-0.825-0.383-0.827-0.838C36.529,91.285,37.197,90.804,37.385,90.266L37.385,90.266z M33.394,90.266
				c0.189,0.539,0.846,1.019,0.815,1.566c-0.001,0.455-0.362,0.837-0.815,0.837s-0.814-0.383-0.815-0.838
				C32.548,91.285,33.206,90.804,33.394,90.266L33.394,90.266z M29.402,90.266c0.189,0.539,0.857,1.019,0.827,1.566
				c-0.001,0.455-0.373,0.837-0.826,0.837c-0.453,0-0.814-0.383-0.816-0.838C28.557,91.285,29.214,90.804,29.402,90.266
				L29.402,90.266z"/>
		</g>
		<path id="Shower_cabin" fill="none" stroke="#1C231F" stroke-miterlimit="10" d="M63.882,101.403H2.777V48.911h42.849
			c10.083,0,18.257,8.174,18.257,18.256V101.403z"/>
	</g>
	<g id="Bedroom">
		<g id="Bed">
			<rect x="10.999" y="108.087" fill="none" stroke="#1C231F" stroke-miterlimit="10" width="60.734" height="71.022"/>
			<rect x="10.999" y="108.087" fill="none" stroke="#1C231F" stroke-miterlimit="10" width="60.734" height="4.646"/>
			<path fill="none" stroke="#1C231F" stroke-miterlimit="10" d="M32.934,125.956H20.005c-0.919,0-1.665-0.745-1.665-1.665v-5.527
				c0-0.919,0.746-1.665,1.665-1.665h12.929c0.919,0,1.665,0.746,1.665,1.665v5.527C34.599,125.211,33.854,125.956,32.934,125.956z"
				/>
			<path fill="none" stroke="#1C231F" stroke-miterlimit="10" d="M62.727,125.956H49.798c-0.919,0-1.665-0.745-1.665-1.665v-5.527
				c0-0.919,0.746-1.665,1.665-1.665h12.928c0.919,0,1.665,0.746,1.665,1.665v5.527C64.392,125.211,63.646,125.956,62.727,125.956z"
				/>
			<polygon fill="none" stroke="#1C231F" stroke-miterlimit="10" points="71.733,179.109 10.999,179.109 10.999,129.549 
				63.215,129.549 71.733,137.191 			"/>
			<polyline fill="none" stroke="#1C231F" stroke-miterlimit="10" points="71.733,137.071 63.436,137.071 63.436,129.549 			"/>
		</g>
		
			<rect id="Nightstand" x="80.664" y="108.087" fill="none" stroke="#1C231F" stroke-miterlimit="10" width="25.861" height="25.862"/>
		
			<polyline id="Master_bedroom_00000026871487927143650520000013590140209662583973_" fill="none" stroke="#1C231F" stroke-width="3" stroke-miterlimit="10" points="
			150.501,167.447 150.501,102.5 2.5,102.5 2.5,219.166 150.501,219.166 150.501,199.375 		"/>
	</g>
	<g id="Kitchen">
		<rect id="Counter" x="320.833" y="4.242" fill="none" stroke="#1C231F" stroke-miterlimit="10" width="106.999" height="42.331"/>
		<g id="Fridge">
			<rect x="280.166" y="4.242" fill="none" stroke="#1C231F" stroke-miterlimit="10" width="40.666" height="42.331"/>
			<line fill="none" stroke="#1C231F" stroke-miterlimit="10" x1="280.166" y1="39.906" x2="320.833" y2="39.906"/>
			
				<line fill="none" stroke="#1C231F" stroke-width="2" stroke-miterlimit="10" x1="285.832" y1="47.573" x2="292.832" y2="47.573"/>
		</g>
		<g id="Sink">
			<g>
				<path fill="none" stroke="#1C231F" stroke-miterlimit="10" d="M366.167,34.906c0,2.75-2.25,5-5,5h-27.334c-2.75,0-5-2.25-5-5
					V18.573c0-2.75,2.25-5,5-5h27.334c2.75,0,5,2.25,5,5V34.906z"/>
			</g>
			<rect x="345.968" y="11.741" fill="#1C231F" width="3.063" height="9.832"/>
			<circle fill="#1C231F" cx="347.5" cy="26.739" r="2.021"/>
			<rect x="342.333" y="13.573" fill="#1C231F" width="3" height="1.667"/>
			<rect x="349.52" y="13.573" fill="#1C231F" width="3" height="1.667"/>
		</g>
		<g id="Cabin">
			<rect x="427.832" y="4.242" fill="none" stroke="#1C231F" stroke-miterlimit="10" width="40.667" height="42.331"/>
			<line fill="none" stroke="#1C231F" stroke-miterlimit="10" x1="427.832" y1="43.576" x2="468.499" y2="43.576"/>
			<line fill="none" stroke="#1C231F" stroke-miterlimit="10" x1="433.832" y1="47.573" x2="442.332" y2="47.573"/>
			<line fill="none" stroke="#1C231F" stroke-miterlimit="10" x1="453.999" y1="47.573" x2="462.499" y2="47.573"/>
			<line fill="none" stroke="#1C231F" stroke-miterlimit="10" x1="448.166" y1="46.573" x2="448.166" y2="43.576"/>
		</g>
		<g id="Gas_stove">
			<rect x="383.333" y="14.406" fill="none" stroke="#1C231F" stroke-miterlimit="10" width="31.25" height="24.666"/>
			<circle fill="#1C231F" cx="392.458" cy="21.547" r="3.25"/>
			<circle fill="#1C231F" cx="405.458" cy="21.495" r="3.25"/>
			<circle fill="#1C231F" cx="392.458" cy="31.983" r="3.25"/>
			<circle fill="#1C231F" cx="405.458" cy="31.932" r="3.25"/>
		</g>
	</g>
	<g id="Living_room">
		<g id="Couch_1">
			<rect x="433.832" y="94.173" fill="none" stroke="#1C231F" stroke-miterlimit="10" width="32.334" height="74.333"/>
			<polyline fill="none" stroke="#1C231F" stroke-miterlimit="10" points="433.832,94.173 433.832,91.173 466.166,91.173 
				466.166,94.173 			"/>
			<polyline fill="none" stroke="#1C231F" stroke-miterlimit="10" points="466.166,168.506 466.166,171.506 433.832,171.506 
				433.832,168.506 			"/>
			<rect x="444.499" y="94.173" fill="none" stroke="#1C231F" stroke-miterlimit="10" width="21.667" height="74.333"/>
			<line fill="none" stroke="#1C231F" stroke-miterlimit="10" x1="444.499" y1="119.173" x2="466.166" y2="119.173"/>
			<line fill="none" stroke="#1C231F" stroke-miterlimit="10" x1="444.499" y1="143.506" x2="466.166" y2="143.506"/>
		</g>
		<g id="Couch_2">
			<rect x="337.502" y="179.498" fill="none" stroke="#1C231F" stroke-miterlimit="10" width="86.825" height="32.334"/>
			<polyline fill="none" stroke="#1C231F" stroke-miterlimit="10" points="424.328,179.498 427.832,179.498 427.832,211.832 
				424.328,211.832 			"/>
			<polyline fill="none" stroke="#1C231F" stroke-miterlimit="10" points="337.502,211.832 333.999,211.832 333.999,179.498 
				337.502,179.498 			"/>
			<rect x="337.502" y="190.164" fill="none" stroke="#1C231F" stroke-miterlimit="10" width="86.825" height="21.668"/>
			<line fill="none" stroke="#1C231F" stroke-miterlimit="10" x1="395.126" y1="190.164" x2="395.126" y2="211.832"/>
			<line fill="none" stroke="#1C231F" stroke-miterlimit="10" x1="366.705" y1="190.164" x2="366.705" y2="211.832"/>
		</g>
		<rect id="Table" x="350.06" y="101.403" fill="none" stroke="#1C231F" stroke-miterlimit="10" width="61.71" height="59.874"/>
	</g>
</g>
</svg>
