<?xml version="1.0" encoding="utf-8"?>
<!-- Generator: Adobe Illustrator 16.0.0, SVG Export Plug-In . SVG Version: 6.00 Build 0)  -->
<!DOCTYPE svg PUBLIC "-//W3C//DTD SVG 1.1//EN" "http://www.w3.org/Graphics/SVG/1.1/DTD/svg11.dtd">
<svg version="1.1" id="Layer_1" xmlns="http://www.w3.org/2000/svg" xmlns:xlink="http://www.w3.org/1999/xlink" x="0px" y="0px"
	 width="473.667px" height="323.442px" viewBox="0 0 473.667 323.442" enable-background="new 0 0 473.667 323.442"
	 xml:space="preserve">
<g id="Camping_House_1_">
	<g id="Terrace_1_">
		<g id="Stairs_3_">
			<g>
				<rect x="235.167" y="315.934" fill="none" width="50" height="6.725"/>
			</g>
			<rect x="235.167" y="305.215" fill="none" width="50" height="10.719"/>
		</g>
		<polyline fill="none" stroke="#1B221E" stroke-width="2" stroke-miterlimit="10" points="286.917,305.215 2.417,305.215 
			2.417,220.213 		"/>
		<polyline fill="none" stroke="#1B221E" stroke-width="2" stroke-miterlimit="10" points="471.083,220.213 471.083,305.215 
			285.167,305.215 		"/>
	</g>
	<polyline id="House_1_" fill="none" stroke="#1C231F" stroke-width="5" stroke-miterlimit="10" points="287.585,218.881 
		2.417,218.881 2.417,2.214 471.083,2.214 471.083,218.881 285.167,218.881 	"/>
	<g id="Stairs_2_">
		<g>
			<rect x="154.436" y="119.068" fill="none" stroke="#1C231F" stroke-miterlimit="10" width="20.667" height="44.088"/>
			<rect x="154.436" y="123.396" fill="#1C231F" width="20.667" height="0.912"/>
			<rect x="154.436" y="127.725" fill="#1C231F" width="20.667" height="0.912"/>
			<rect x="154.436" y="132.053" fill="#1C231F" width="20.667" height="0.912"/>
			<rect x="154.436" y="136.381" fill="#1C231F" width="20.667" height="0.912"/>
			<rect x="154.436" y="140.709" fill="#1C231F" width="20.667" height="0.912"/>
			<rect x="154.436" y="145.037" fill="#1C231F" width="20.667" height="0.912"/>
			<rect x="154.436" y="149.367" fill="#1C231F" width="20.667" height="0.912"/>
			<rect x="154.436" y="153.695" fill="#1C231F" width="20.667" height="0.912"/>
			<rect x="154.436" y="158.023" fill="#1C231F" width="20.667" height="0.912"/>
		</g>
		<rect x="150.419" y="101.395" fill="none" stroke="#1C231F" stroke-miterlimit="10" width="24.684" height="17.674"/>
	</g>
	<g id="Bathroom_1_">
		<polyline id="Walls_2_" fill="none" stroke="#1C231F" stroke-width="3" stroke-miterlimit="10" points="150.419,101.395 
			150.419,2.214 2.417,2.214 2.417,102.215 		"/>
	</g>
	<polyline id="Master_bedroom_3_" fill="none" stroke="#1C231F" stroke-width="3" stroke-miterlimit="10" points="2.417,102.215 
		2.417,218.881 150.419,218.881 150.419,199.088 	"/>
	
		<line id="Master_bedroom_2_" fill="none" stroke="#1C231F" stroke-width="3" stroke-miterlimit="10" x1="150.419" y1="202.237" x2="150.419" y2="119.068"/>
	<g id="Upstairs_beds">
		<g id="Bed2">
			<rect x="14.123" y="67.238" fill="none" stroke="#1C231F" stroke-miterlimit="10" width="71.021" height="30.367"/>
			<rect x="14.123" y="67.238" fill="none" stroke="#1C231F" stroke-miterlimit="10" width="4.646" height="30.367"/>
			<path fill="none" stroke="#1C231F" stroke-miterlimit="10" d="M31.992,76.245v12.929c0,0.919-0.744,1.664-1.664,1.664h-5.527
				c-0.918,0-1.664-0.745-1.664-1.664V76.245c0-0.919,0.746-1.665,1.664-1.665h5.527C31.248,74.58,31.992,75.326,31.992,76.245z"/>
			<polygon fill="none" stroke="#1C231F" stroke-miterlimit="10" points="85.145,67.238 85.145,97.605 35.586,97.605 35.586,72.668 
				41.894,67.238 			"/>
			<polyline fill="none" stroke="#1C231F" stroke-miterlimit="10" points="41.894,67.238 41.894,72.918 35.586,72.918 			"/>
		</g>
		<g id="Bed1">
			<rect x="14.123" y="106.824" fill="none" stroke="#1C231F" stroke-miterlimit="10" width="71.021" height="30.367"/>
			<rect x="14.123" y="106.824" fill="none" stroke="#1C231F" stroke-miterlimit="10" width="4.646" height="30.367"/>
			<path fill="none" stroke="#1C231F" stroke-miterlimit="10" d="M31.992,115.831v12.929c0,0.919-0.744,1.664-1.664,1.664h-5.527
				c-0.918,0-1.664-0.745-1.664-1.664v-12.929c0-0.919,0.746-1.665,1.664-1.665h5.527C31.248,114.166,31.992,114.912,31.992,115.831
				z"/>
			<polygon fill="none" stroke="#1C231F" stroke-miterlimit="10" points="85.145,106.824 85.145,137.191 35.586,137.191 
				35.586,112.254 41.894,106.824 			"/>
			<polyline fill="none" stroke="#1C231F" stroke-miterlimit="10" points="41.894,106.824 41.894,112.504 35.586,112.504 			"/>
		</g>
	</g>
</g>
</svg>
