<?xml version="1.0" encoding="utf-8"?>
<!-- Generator: Adobe Illustrator 26.3.1, SVG Export Plug-In . SVG Version: 6.00 Build 0)  -->
<svg version="1.1" id="Layer_1" xmlns="http://www.w3.org/2000/svg" xmlns:xlink="http://www.w3.org/1999/xlink" x="0px" y="0px"
	 viewBox="0 0 560 369" style="enable-background:new 0 0 560 369;" xml:space="preserve">
<style type="text/css">
	.st0{fill:#1C231F;}
</style>
<g>
	<path class="st0" d="M130,142.1H53.5V7.8c0-4.6,3.8-8.4,8.4-8.4c4.6,0,8.4,3.8,8.4,8.4V53C138.4,33.3,208.9,23.3,280,23.3
		s141.6,10,209.7,29.7V7.8c0-4.6,3.8-8.4,8.4-8.4s8.4,3.8,8.4,8.4v134.3l-76.5,0v-41c-40.2-11.9-82.4-11.9-122.6,0v41h-54.8v-41
		c-40.2-11.9-82.4-11.9-122.6,0L130,142.1L130,142.1z M551.6,85c-4.6,0-8.4,3.8-8.4,8.4v65.5H16.8V93.4c0-4.6-3.8-8.4-8.4-8.4
		C3.8,85,0,88.7,0,93.4v266.8c0,4.6,3.8,8.4,8.4,8.4s8.4-3.8,8.4-8.4v-38.6h526.5v38.6c0,4.6,3.8,8.4,8.4,8.4c4.6,0,8.4-3.8,8.4-8.4
		V93.4C560,88.7,556.2,85,551.6,85L551.6,85z"/>
</g>
</svg>
