<?xml version="1.0" encoding="utf-8"?>
<!-- Generator: Adobe Illustrator 26.3.1, SVG Export Plug-In . SVG Version: 6.00 Build 0)  -->
<svg version="1.1" id="Layer_1" xmlns="http://www.w3.org/2000/svg" xmlns:xlink="http://www.w3.org/1999/xlink" x="0px" y="0px"
	 viewBox="0 0 560 320.7" style="enable-background:new 0 0 560 320.7;" xml:space="preserve">
<style type="text/css">
	.st0{fill:#1C231F;}
</style>
<g>
	<path class="st0" d="M516.2,76.3c-24.2,0-43.8,19.7-43.8,43.8v54.4H87.7v-54.4C87.7,96,68,76.3,43.8,76.3S0,96,0,120.2v98.2
		c0,24.2,19.7,43.8,43.8,43.8h17.2V303c0,9.8,7.9,17.7,17.7,17.7c9.8,0,17.7-7.9,17.7-17.7v-40.8h367.1V303
		c0,9.8,7.9,17.7,17.7,17.7c9.8,0,17.7-7.9,17.7-17.7v-40.8h17.2c24.2,0,43.8-19.7,43.8-43.8v-98.2C560,96,540.3,76.3,516.2,76.3
		L516.2,76.3z"/>
	<path class="st0" d="M111.2,120.2V151h337.5v-30.8c0-25.5,14.2-47.7,35.1-59.1C479.8,26.7,450.6,0,415.2,0L144.8,0
		c-35.4,0-64.6,26.7-68.6,61.1C97,72.5,111.2,94.7,111.2,120.2L111.2,120.2z"/>
</g>
</svg>
