<?xml version="1.0" encoding="utf-8"?>
<!-- Generator: Adobe Illustrator 26.3.1, SVG Export Plug-In . SVG Version: 6.00 Build 0)  -->
<svg version="1.1" id="Layer_1" xmlns="http://www.w3.org/2000/svg" xmlns:xlink="http://www.w3.org/1999/xlink" x="0px" y="0px"
	 viewBox="0 0 293.7 552.3" style="enable-background:new 0 0 293.7 552.3;" xml:space="preserve">
<style type="text/css">
	.st0{fill:#1C231F;}
</style>
<g>
	<path class="st0" d="M0,512c0,3.6,1.4,7.1,4,9.6c2.6,2.5,6,4,9.6,4h7.9v15.1l0,0c0,2,0.8,3.9,2.2,5.4c1.4,1.4,3.4,2.2,5.4,2.2h28.2
		c4.2,0,7.6-3.4,7.6-7.6v-15.1l163.2,0v15.1v0c0,2,0.8,3.9,2.2,5.4s3.4,2.2,5.4,2.2H264c4.2,0,7.6-3.4,7.6-7.6v-15.1h7.9l0,0
		c3.6,0,7.1-1.4,9.6-4c2.6-2.6,4-6,4-9.6v-291H0L0,512z M33.7,254.6h21.7l0,57.6H33.7L33.7,254.6z"/>
	<path class="st0" d="M279.5,0H13.6C10,0,6.5,1.4,4,4c-2.6,2.5-4,6-4,9.6v185.6h293V13.6c0-3.6-1.4-7.1-4-9.6
		C286.5,1.4,283.1,0,279.5,0L279.5,0z M55.5,165.5H33.7v-57.6h21.7L55.5,165.5z"/>
</g>
</svg>
