<?xml version="1.0" encoding="utf-8"?>
<!-- Generator: Adobe Illustrator 26.3.1, SVG Export Plug-In . SVG Version: 6.00 Build 0)  -->
<svg version="1.1" id="Layer_1" xmlns="http://www.w3.org/2000/svg" xmlns:xlink="http://www.w3.org/1999/xlink" x="0px" y="0px"
	 viewBox="0 0 379.7 541.7" style="enable-background:new 0 0 379.7 541.7;" xml:space="preserve">
<style type="text/css">
	.st0{fill:#1B221F;}
</style>
<path class="st0" d="M182,65.7c-16.8-17.4-16.8-45.4,0-62.7c3.9-3.9,10.1-3.9,13.4,0c3.9,3.9,3.9,10.1,0,13.4
	c-9.5,9.5-9.5,25.2,0,34.7c17.4,17.4,17.4,45.4,0,62.2c-1.7,1.7-4.5,2.8-6.7,2.8s-5-1.1-6.7-2.8c-3.9-3.9-3.9-10.1,0-13.4
	C192.1,90.9,192.1,75.2,182,65.7L182,65.7z"/>
<path class="st0" d="M102.5,65.7c-17.4-17.4-17.4-45.4,0-62.2c3.9-3.9,10.1-3.9,13.4,0c3.9,3.9,3.9,10.1,0,13.4
	c-9.5,9.5-9.5,25.2,0,34.7c17.4,17.4,17.4,45.4,0,62.2c-1.7,1.7-4.5,2.8-6.7,2.8s-5-1.1-6.7-2.8c-3.9-3.9-3.9-10.1,0-13.4
	C112,90.9,112,75.2,102.5,65.7L102.5,65.7z"/>
<path class="st0" d="M272.2,83c0-6.7-2.8-12.9-7.3-17.4c-17.4-17.4-17.4-45.4,0-62.2c3.9-3.9,10.1-3.9,13.4,0
	c3.9,3.9,3.9,10.1,0,13.4c-9.5,9.5-9.5,25.2,0,34.7c8.4,8.4,12.9,19.6,12.9,31.4c0,11.8-4.5,23-12.9,31.4c-1.7,1.7-4.5,2.8-6.7,2.8
	s-5-1.1-6.7-2.8c-3.9-3.9-3.9-10.1,0-13.4C269.4,95.9,272.2,89.7,272.2,83L272.2,83z"/>
<path class="st0" d="M304.1,322.7c47.6-35.8,75.6-92.4,75.6-151.8c0-6.7-5.6-12.3-12.3-12.3l-355,0c-6.7,0-12.3,5.6-12.3,12.3
	c0,58.8,28,115.4,75,151.2L5.6,525.4c-2.2,6.2,1.1,12.9,7.3,15.1c6.2,2.2,13.4-1.1,15.1-7.3l21.3-62.7h279.4l21.3,62.7
	c1.7,5,6.2,8.4,11.2,8.4c1.1,0,2.8,0,3.9-0.6c6.2-2.2,9.5-9,7.3-15.1L304.1,322.7z M245.8,291.9c43.7-10.1,60.5-55.4,60.5-55.4
	c1.7-4.5,6.7-7.3,11.8-5.6c4.5,1.7,7.3,6.7,5.6,11.8c-0.6,2.2-20.2,54.9-73.4,67.2h-2.2c-3.9,0-7.8-2.8-9-7.3
	C238,297.5,241.4,293,245.8,291.9L245.8,291.9z M58.2,446.5l38.1-110.9c28.6,16.2,61,25.2,94.1,25.2c32.5,0,65-8.4,93.5-24.6
	l37.5,110.3L58.2,446.5z"/>
</svg>
