<?xml version="1.0" encoding="utf-8"?>
<!-- Generator: Adobe Illustrator 26.3.1, SVG Export Plug-In . SVG Version: 6.00 Build 0)  -->
<svg version="1.1" id="Layer_1" xmlns="http://www.w3.org/2000/svg" xmlns:xlink="http://www.w3.org/1999/xlink" x="0px" y="0px"
	 viewBox="0 0 472.7 523.8" style="enable-background:new 0 0 472.7 523.8;" xml:space="preserve">
<style type="text/css">
	.st0{fill:#1C231F;}
</style>
<g>
	<path class="st0" d="M0,0v120.2h59.3V88.9h140c32.9,0,62.6,23.1,70.8,52.7c9.9-3.3,19.8-4.9,31.3-4.9c8.2,0,18.1,1.6,24.7,3.3
		C312.9,77.4,256.9,31.3,191.1,31.3H59.3V0L0,0z"/>
	<path class="st0" d="M360.7,202.6H243.8c-42.8,21.4-74.1,64.2-75.8,115.3h270.1C433.2,266.8,403.5,222.4,360.7,202.6L360.7,202.6z"
		/>
	<path class="st0" d="M443.1,334.4H156.5c-8.2,0-14.8,6.6-14.8,14.8s6.6,14.8,14.8,14.8h284.9c8.2,0,14.8-6.6,14.8-14.8
		C457.9,341,451.3,334.4,443.1,334.4L443.1,334.4z"/>
	<path class="st0" d="M248.7,186.1h105.4c0-21.4-28-32.9-52.7-32.9C278.4,151.5,248.7,163.1,248.7,186.1L248.7,186.1z"/>
	<path class="st0" d="M429.9,457.9c0,11.5,9.9,21.4,21.4,21.4c11.5,0,21.4-9.9,21.4-21.4c0-11.5-21.4-37.9-21.4-37.9
		S429.9,444.7,429.9,457.9z"/>
	<path class="st0" d="M392,502.4c0-11.5-21.4-37.9-21.4-37.9s-21.4,26.4-21.4,37.9c0,11.5,9.9,21.4,21.4,21.4
		C382.1,523.8,392,513.9,392,502.4z"/>
	<path class="st0" d="M322.8,434.8c0-11.5-21.4-37.9-21.4-37.9S280,423.3,280,434.8s9.9,21.4,21.4,21.4
		C312.9,456.2,322.8,448,322.8,434.8z"/>
	<path class="st0" d="M238.8,471.1c0-11.5-21.4-37.9-21.4-37.9S196,459.5,196,471.1s9.9,21.4,21.4,21.4
		C228.9,492.5,238.8,484.2,238.8,471.1z"/>
	<path class="st0" d="M164.7,434.8c0-11.5-21.4-37.9-21.4-37.9s-21.4,26.4-21.4,37.9s9.9,21.4,21.4,21.4
		C154.8,457.9,164.7,448,164.7,434.8z"/>
</g>
</svg>
