<?xml version="1.0" encoding="utf-8"?>
<!-- Generator: Adobe Illustrator 26.3.1, SVG Export Plug-In . SVG Version: 6.00 Build 0)  -->
<svg version="1.1" id="Layer_1" xmlns="http://www.w3.org/2000/svg" xmlns:xlink="http://www.w3.org/1999/xlink" x="0px" y="0px"
	 viewBox="0 0 527.1 288.2" style="enable-background:new 0 0 527.1 288.2;" xml:space="preserve">
<style type="text/css">
	.st0{fill:#1C231F;}
</style>
<g>
	<path class="st0" d="M494.1,0H32.9C14.8,0,0,14.8,0,32.9v197.6c0,18.1,14.8,32.9,32.9,32.9h98.8V280c0,4.9,4.1,8.2,8.2,8.2
		c4.1,0,8.2-3.3,8.2-8.2v-16.5h230.6V280c0,4.9,4.1,8.2,8.2,8.2c4.1,0,8.2-3.3,8.2-8.2v-16.5h98.8c18.1,0,32.9-14.8,32.9-32.9V32.9
		C527.1,14.8,512.2,0,494.1,0L494.1,0z M354.1,123.5H322c4.1-29.6,27.2-53.5,56.8-56.8v32.1c0,4.9,4.1,8.2,8.2,8.2s8.2-3.3,8.2-8.2
		V66.7c29.6,4.1,53.5,27.2,56.8,56.8H420c-4.1,0-8.2,3.3-8.2,8.2s4.1,8.2,8.2,8.2h32.1c-4.1,29.6-27.2,53.5-56.8,56.8v-32.1
		c0-4.9-4.1-8.2-8.2-8.2c-4.1,0-8.2,3.3-8.2,8.2v32.1c-29.6-4.1-53.5-27.2-56.8-56.8l32.1,0c4.1,0,8.2-3.3,8.2-8.2
		S358.2,123.5,354.1,123.5L354.1,123.5z M172.9,140h32.1c-4.1,29.6-27.2,53.5-56.8,56.8v-32.1c0-4.9-4.1-8.2-8.2-8.2
		c-4.1,0-8.2,3.3-8.2,8.2v32.1c-29.6-4.1-53.5-27.2-56.8-56.8h32.1c4.1,0,8.2-3.3,8.2-8.2s-4.1-8.2-8.2-8.2H74.9
		c4.1-29.6,27.2-53.5,56.8-56.8v32.1c0,4.9,4.1,8.2,8.2,8.2c4.1,0,8.2-3.3,8.2-8.2V66.7c29.6,4.1,53.5,27.2,56.8,56.8l-32.1,0
		c-4.1,0-8.2,3.3-8.2,8.2C164.7,136.7,168.8,140,172.9,140z"/>
</g>
</svg>
