<?xml version="1.0" encoding="utf-8"?>
<!-- Generator: Adobe Illustrator 26.3.1, SVG Export Plug-In . SVG Version: 6.00 Build 0)  -->
<svg version="1.1" id="Layer_1" xmlns="http://www.w3.org/2000/svg" xmlns:xlink="http://www.w3.org/1999/xlink" x="0px" y="0px"
	 viewBox="0 0 558.9 341.9" style="enable-background:new 0 0 558.9 341.9;" xml:space="preserve">
<style type="text/css">
	.st0{fill:#1C231F;}
</style>
<g>
	<path class="st0" d="M554.8,101L472,4.1c-2.2-2.6-5.4-4-8.8-4L94.4,0c-3.4,0-6.6,1.5-8.8,4l-84,98.4c-2.9,3.4-3.6,8.2-1.7,12.3
		s6,6.7,10.5,6.7h47v203.2c0,9.6,7.8,17.3,17.3,17.3c9.6,0,17.3-7.7,17.3-17.3l0-203.2h34.2v99.9c0,9.6,7.8,17.3,17.3,17.3
		c9.6,0,17.3-7.7,17.3-17.3v-99.9h235.8v99.9c0,9.6,7.8,17.3,17.3,17.3c9.6,0,17.3-7.7,17.3-17.3v-99.9h34.2l0,203.2
		c0,9.6,7.7,17.3,17.3,17.3c9.6,0,17.3-7.7,17.3-17.3V121.4h47h0.2c6.4,0,11.5-5.2,11.5-11.5C558.9,106.3,557.3,103.1,554.8,101
		L554.8,101z"/>
</g>
</svg>
