<?xml version="1.0" encoding="utf-8"?>
<!-- Generator: Adobe Illustrator 26.3.1, SVG Export Plug-In . SVG Version: 6.00 Build 0)  -->
<svg version="1.1" id="Layer_1" xmlns="http://www.w3.org/2000/svg" xmlns:xlink="http://www.w3.org/1999/xlink" x="0px" y="0px"
	 viewBox="0 0 390.4 455" style="enable-background:new 0 0 390.4 455;" xml:space="preserve">
<style type="text/css">
	.st0{fill:#1C231F;}
</style>
<path class="st0" d="M0,193.5v193.1C0,424.3,30.7,455,68.4,455H322c37.7,0,68.4-30.7,68.4-68.4V193.5c0-37.7-30.7-68.4-68.4-68.4
	H211.8l95.3-110.7c3.1-3.7,2.7-9.2-0.9-12.3c-3.6-3.1-9.2-2.7-12.3,0.9l-98.7,114.5L96.5,3C93.3-0.6,87.8-1,84.2,2.1
	c-3.7,3.1-4.1,8.7-0.9,12.3l95.3,110.6H68.4C30.7,125.1,0,155.8,0,193.5L0,193.5z M236.4,419.4H81c-4.8,0-8.8-3.9-8.8-8.8
	s3.9-8.8,8.8-8.8h155.5c4.8,0,8.8,3.9,8.8,8.8C245.2,415.4,241.3,419.4,236.4,419.4L236.4,419.4z M309.4,419.4h-38.9
	c-4.8,0-8.8-3.9-8.8-8.8s3.9-8.8,8.8-8.8h38.9c4.8,0,8.8,3.9,8.8,8.8C318.2,415.4,314.3,419.4,309.4,419.4z M318.6,177.7
	c10.6,0,19.2,8.6,19.2,19.2v151.3c0,10.6-8.6,19.2-19.2,19.2H71.8c-10.6,0-19.2-8.6-19.2-19.2V196.9c0-10.6,8.6-19.2,19.2-19.2
	H318.6z"/>
</svg>
